<svg width="384" height="348" viewBox="0 0 384 348" fill="none" xmlns="http://www.w3.org/2000/svg">
<ellipse cx="158.317" cy="334.048" rx="124.862" ry="13.2369" fill="#7F7F7F" fill-opacity="0.5"/>
<path d="M247.725 70.085L258.274 247.168H119.237L106.267 76.039L247.725 70.085Z" fill="#FF7F50"/>
<path d="M2 42.2767L50.2773 53.8146L82.7653 247.529M82.7653 247.529C69.8977 271.435 69.1248 292.598 96.256 292.598H314.634M82.7653 247.529H96.256M338.163 151.777L303.806 247.529H270.515M270.515 247.529L283.767 132.588M270.515 247.529H227.179M227.179 247.529L234.208 109.578M227.179 247.529H176.824M96.256 247.529L80.9969 108.114L126.776 108.552M96.256 247.529H133.183M234.208 109.578H272.737M234.208 109.578L176.824 109.03M176.824 109.03V247.529M176.824 109.03L126.776 108.552M176.824 247.529H133.183M133.183 247.529L126.776 108.552M140.153 80.0968C136.71 63.1971 129.543 32.0525 140.153 19.383C155.898 0.581516 200.379 -7.79477 210.255 19.383C215.984 35.149 219.018 51.3047 219.018 82.6005M381.613 97.949C381.613 128.354 356.965 153.002 326.56 153.002C296.155 153.002 271.507 128.354 271.507 97.949C271.507 67.5439 296.155 42.8958 326.56 42.8958C356.965 42.8958 381.613 67.5439 381.613 97.949Z" stroke="black" stroke-width="4" stroke-linecap="round"/>
<path d="M300.63 97.423L317.109 113.904C317.5 114.295 318.133 114.295 318.524 113.904L352.13 80.2981" stroke="#67E1FD" stroke-width="12" stroke-linecap="round"/>
<circle cx="269.845" cy="320.832" r="17.6167" fill="black"/>
<circle cx="106.266" cy="320.832" r="17.6167" fill="black"/>
</svg>
