<svg width="512" height="514" viewBox="0 0 512 514" fill="none" xmlns="http://www.w3.org/2000/svg">
<g clip-path="url(#clip0_131_2)">
<path d="M210.48 160.8C210.48 146.19 222.32 134.34 236.93 134.34C251.54 134.34 263.38 146.19 263.38 160.8V271.68L336.72 303.92C350.08 309.8 356.14 325.39 350.26 338.74C344.38 352.09 328.79 358.15 315.44 352.28L227.64 313.68C217.61 309.92 210.48 300.25 210.48 288.91V160.8ZM5.40027 168.54C4.64027 166.29 4.17027 163.9 4.04027 161.41L0.0402713 87.9201C-0.709729 73.3701 10.4903 60.9701 25.0403 60.2301C39.5903 59.4801 51.9903 70.6801 52.7303 85.2301L53.4703 98.8301C64.3682 84.8062 76.7056 71.9627 90.2803 60.5101C108.25 45.3501 128.66 32.4201 151.29 22.3301C215.96 -6.51992 286.14 -6.44992 347.31 16.9801C407.86 40.1801 459.67 86.2501 488.71 149.81C489.48 151.19 490.13 152.65 490.65 154.17C518.51 218.23 518.18 287.5 495.02 347.98C471.82 408.53 425.75 460.34 362.19 489.37C358.253 491.577 353.814 492.731 349.3 492.72C334.69 492.72 322.85 480.88 322.85 466.27C322.85 454.77 330.19 444.99 340.44 441.35C348.13 437.82 355.5 433.88 362.53 429.55C363.33 428.89 364.18 428.27 365.08 427.69C376.41 420.37 387.18 411.99 396.92 402.65C397.56 402.04 398.23 401.46 398.92 400.93C419.58 380.43 435.4 355.87 445.63 329.17C464.29 280.47 464.4 224.71 441.53 173.45L441.52 173.42C418.65 122.16 377.13 85.0001 328.5 66.3701C279.8 47.7201 224.04 47.6101 172.78 70.4701C155.302 78.2558 139.008 88.4662 124.38 100.8C114.52 109.12 105.58 118.26 97.6303 128.09L101.08 127.66C115.57 125.89 128.76 136.21 130.53 150.7C132.3 165.19 121.98 178.38 107.49 180.15L34.4303 189.15C20.7703 190.81 8.27027 181.74 5.40027 168.54ZM283.49 511.5C304.37 509.16 314.33 484.57 300.95 468.34C295.24 461.41 286.56 458 277.66 458.92C262.1 460.67 246.53 460.64 230.98 458.79C221.64 457.68 212.53 461.51 206.79 468.96C194.43 485.39 204.24 508.73 224.61 511.31C244.19 513.65 263.89 513.7 283.49 511.5ZM114.75 470.83C122.67 476.09 132.52 476.69 141.07 472.57C159.36 463.51 161.04 438.16 144.08 426.81C131.27 418.36 118.94 407.85 108.47 396.65C98.8903 386.45 83.1903 385.4 72.3603 394.26C69.5633 396.553 67.2666 399.395 65.6121 402.611C63.9577 405.827 62.9807 409.349 62.7417 412.957C62.5027 416.566 63.0067 420.186 64.2225 423.592C65.4383 426.998 67.3401 430.118 69.8103 432.76C83.1503 446.96 98.4703 460.1 114.75 470.83ZM10.9303 331.97C13.8503 341.41 21.6503 348.29 31.3403 350.15C50.8803 353.78 67.3503 335.31 61.4703 316.33C56.8103 301.33 53.9803 286.07 52.8303 270.4C51.4703 252.07 32.6203 240.78 15.7703 248.07C5.50027 252.72 -0.689729 262.86 0.0602713 274.14C1.48027 293.8 5.08027 313.14 10.9303 331.97Z" fill="black"/>
</g>
<defs>
<clipPath id="clip0_131_2">
<rect width="512" height="513.11" fill="white"/>
</clipPath>
</defs>
</svg>
