<svg width="566" height="520" viewBox="0 0 566 520" fill="none" xmlns="http://www.w3.org/2000/svg">
<g clip-path="url(#clip0_131_4)">
<path fill-rule="evenodd" clip-rule="evenodd" d="M90.1432 80.5274H308.757C305.84 90.2186 303.971 100.319 303.197 110.784L281.732 110.739L303.652 201.691H327.988C333.822 210.108 340.566 217.843 348.04 224.804H309.258L327.852 302.107L381.445 294.827L368.411 240.592C379.303 247.508 391.198 253.014 403.822 256.79L411.979 290.641L415.853 290.095C440.052 286.637 438.411 292.143 440.326 269.393L440.872 262.659C442.103 262.705 443.379 262.705 444.655 262.705C453.77 262.705 462.656 261.84 471.27 260.202L468.854 291.233C466.484 319.26 468.49 312.481 438.73 316.712L165.475 351.428L179.922 393.332C298.457 393.332 355.788 393.332 474.277 393.332C478.288 408.21 483.665 432.416 487.676 449.023H438.685L433.991 432.052C335.234 432.052 297.591 432.052 198.789 432.052C144.831 431.142 150.254 445.701 137.311 399.202L44.5247 62.6918H0V30.4331H78.0664C81.7122 43.9918 86.7708 66.8322 90.1432 80.5274ZM213.828 443.654C234.655 443.654 251.563 460.534 251.563 481.373C251.563 502.211 234.655 519.046 213.828 519.046C192.956 519.046 176.048 502.166 176.048 481.373C176.048 460.534 192.956 443.654 213.828 443.654ZM369.551 443.654C390.378 443.654 407.285 460.534 407.285 481.373C407.285 502.211 390.378 519.046 369.551 519.046C348.678 519.046 331.771 502.166 331.771 481.373C331.771 460.534 348.678 443.654 369.551 443.654ZM122.682 201.691H182.793L160.964 110.602C139.499 110.602 118.262 110.557 97.526 110.557L104.863 137.81L105.091 137.765L122.682 201.691ZM192.409 110.648L214.238 201.691H272.161L250.241 110.693L192.409 110.648ZM297.318 306.293L277.721 224.85H219.798L241.172 313.982L297.318 306.293ZM210.638 318.077L188.307 224.804H129.062L156.771 325.402L210.638 318.077Z" fill="black"/>
<path fill-rule="evenodd" clip-rule="evenodd" d="M444.934 0C511.734 0 565.878 54.1102 565.878 120.869C565.878 187.618 511.734 241.728 444.934 241.728C378.144 241.728 324 187.618 324 120.869C324 54.1102 378.144 0 444.934 0Z" fill="#3AAF3C"/>
<path d="M508.848 67.6201H517.927C479.246 110.554 449.263 145.946 422.417 197.703C408.437 167.839 395.971 147.218 368.103 128.1L378.504 125.756C399.338 142.781 410.311 161.71 422.417 187.578C447.119 139.937 474.496 106.167 508.848 67.6201Z" fill="#0DA10D"/>
<path d="M398.657 111.074C407.946 116.422 413.999 120.869 421.194 128.801C439.873 98.7563 460.146 82.1116 486.501 58.4866L489.077 57.4951H517.927C479.246 100.419 449.263 135.821 422.417 187.578C408.437 157.714 395.971 137.093 368.103 117.975L398.657 111.074Z" fill="white"/>
</g>
<defs>
<clipPath id="clip0_131_4">
<rect width="566" height="520" fill="white"/>
</clipPath>
</defs>
</svg>
