<svg width="482" height="520" viewBox="0 0 482 520" fill="none" xmlns="http://www.w3.org/2000/svg">
<g clip-path="url(#clip0_131_7)">
<path fill-rule="evenodd" clip-rule="evenodd" d="M0 423.906L205.423 450.472C199.416 433.936 196.138 416.1 196.138 397.492C196.138 354.632 213.511 315.813 241.589 287.724C269.656 259.645 308.46 242.265 351.302 242.265C394.144 242.265 432.948 259.645 461.025 287.724C466.945 293.659 472.381 300.057 477.281 306.859L478.692 41.5095L174.403 0L0 79.1613V423.906Z" fill="#C28F60"/>
<path fill-rule="evenodd" clip-rule="evenodd" d="M478.692 41.5094L466.546 49.4276L343.965 125.929L0 79.1613L174.403 0L478.692 41.5094Z" fill="#AA7950"/>
<path fill-rule="evenodd" clip-rule="evenodd" d="M345.224 242.377V127.909L478.692 41.5093L482 313.782C475.952 304.352 468.91 295.621 461.025 287.724C432.948 259.645 394.144 242.265 351.302 242.265C349.272 242.265 347.243 242.306 345.224 242.377Z" fill="#D2A06D"/>
<path fill-rule="evenodd" clip-rule="evenodd" d="M235.541 8.33447L335.218 21.9375L192.546 107.23L192.455 254.853L141.688 220.257L90.9102 248.965L97.2523 93.9725L235.541 8.33447Z" fill="#65472F"/>
<path fill-rule="evenodd" clip-rule="evenodd" d="M351.302 274.974C418.945 274.974 473.771 329.822 473.771 397.492C473.771 465.152 418.945 520 351.302 520C283.67 520 228.844 465.152 228.844 397.492C228.844 329.822 283.67 274.974 351.302 274.974Z" fill="#3AAF3C"/>
<path d="M416.022 343.517H425.215C386.046 387.036 355.686 422.911 328.501 475.374C314.345 445.103 301.722 424.201 273.502 404.821L284.035 402.446C305.131 419.704 316.243 438.89 328.501 465.111C353.514 416.821 381.237 382.59 416.022 343.517Z" fill="#0DA10D"/>
<path d="M304.441 387.564C313.848 392.985 319.977 397.492 327.263 405.532C346.177 375.078 366.706 358.206 393.393 334.258L396.001 333.253H425.215C386.046 376.763 355.686 412.648 328.501 465.111C314.345 434.839 301.722 413.937 273.502 394.558L304.441 387.564Z" fill="white"/>
</g>
<defs>
<clipPath id="clip0_131_7">
<rect width="482" height="520" fill="white"/>
</clipPath>
</defs>
</svg>
