<svg width="781" height="520" viewBox="0 0 781 520" fill="none" xmlns="http://www.w3.org/2000/svg">
<g clip-path="url(#clip0_131_19)">
<path fill-rule="evenodd" clip-rule="evenodd" d="M547.951 127.697L486.737 127.285V44.6198C486.737 32.3093 481.749 21.1887 473.619 13.119C465.549 4.98827 454.429 0 442.119 0H44.6331C31.0724 0 18.8845 6.13236 10.6779 15.758C-0.945554 29.4109 0.0154418 42.6214 0.0154418 58.4558V401.502C0.0154418 425.772 20.0286 447.281 44.6331 447.281H117.501C124.213 447.281 129.597 441.881 129.597 435.184C129.597 428.487 124.213 423.103 117.501 423.103V423.164H44.5568C33.1774 423.164 24.1929 412.562 24.1929 401.502V58.1049C24.1929 47.4877 22.1336 38.1824 30.3097 30.1126C34.1147 26.3247 39.2642 24.1968 44.6331 24.1938H442.119C447.733 24.1938 452.858 26.5126 456.55 30.2042C460.226 33.8958 462.56 39.0061 462.56 44.6198V423.164H366.582C359.886 423.164 354.486 428.564 354.486 435.26C354.486 441.957 359.886 447.342 366.582 447.342H474.641C481.337 447.342 486.737 441.957 486.737 435.26V421.516H535.595C541.117 295.681 721.815 278.321 740.196 421.516H779.887C790.107 298.823 729.518 251.137 637.369 240.352C630.749 211.551 618.104 184.825 603.826 158.404C586.848 126.995 582.882 128.261 547.951 127.697ZM243.269 66.6475C252.696 66.6475 261.925 67.7153 270.772 69.7289C279.879 71.7883 288.619 74.8697 296.841 78.8207C297.726 79.2478 298.107 80.3309 297.68 81.2157C297.543 81.5055 297.345 81.7343 297.101 81.9021L287.735 89.4379L278.948 96.7449C278.445 97.172 277.774 97.2635 277.194 97.05C271.855 95.1126 266.272 93.6177 260.537 92.6109C254.954 91.6346 249.173 91.1159 243.285 91.1159C216.865 91.1159 191.772 101.504 173.102 120.191C154.4 138.909 144.012 163.942 144.012 190.393C144.012 230.635 168.312 266.834 205.318 282.15C256.083 303.186 314.261 278.58 335.037 228.362C340.015 216.323 342.571 203.421 342.557 190.393C342.557 183.956 341.947 177.64 340.711 171.325C340.62 170.776 340.772 170.226 341.093 169.83L349.025 159.64L357.201 149.434C357.402 149.189 357.665 149.002 357.963 148.892C358.261 148.783 358.583 148.754 358.895 148.81C359.207 148.866 359.499 149.004 359.74 149.211C359.981 149.417 360.163 149.684 360.267 149.984C364.767 162.981 367.024 176.649 367.024 190.393C367.024 207.143 363.684 223.13 357.643 237.698C331.742 300.272 259.256 330.965 195.982 304.757C150.007 285.735 119.53 240.733 119.53 190.393C119.53 157.489 132.511 126.156 155.773 102.893C179.035 79.6292 210.367 66.6475 243.269 66.6475ZM240.478 356.165C195.25 356.165 158.565 392.853 158.565 438.083C158.565 483.313 195.25 520 240.478 520C285.706 520 322.376 483.313 322.376 438.083C322.315 392.853 285.706 356.165 240.478 356.165ZM240.478 406.597C223.134 406.597 208.979 420.662 208.979 438.083C208.979 455.442 223.058 469.583 240.478 469.583C257.822 469.583 271.977 455.503 271.977 438.083C271.901 420.662 257.822 406.597 240.478 406.597ZM637.644 344.114C592.431 344.114 555.746 380.801 555.746 426.031C555.746 471.261 592.431 507.949 637.644 507.949C682.872 507.949 719.557 471.261 719.557 426.031C719.557 380.801 682.872 344.114 637.644 344.114ZM606.16 426.031C606.16 443.391 620.224 457.532 637.644 457.532C655.064 457.532 669.143 443.452 669.143 426.031C669.143 408.611 655.064 394.546 637.644 394.546C620.27 394.546 606.16 408.641 606.16 426.031ZM553.824 162.66L516.925 161.974V240.489H595.086C585.445 212.482 571.183 186.808 553.824 162.66Z" fill="#1A191C"/>
<path d="M186.936 172.011L214.607 171.645L216.666 172.179C222.249 175.398 227.512 179.074 232.423 183.254C235.978 186.244 239.364 189.523 242.583 193.078C252.513 177.091 263.084 162.431 274.265 148.946C286.499 134.164 299.495 120.756 313.132 108.521L315.832 107.469H346.019L339.933 114.242C321.216 135.034 304.254 156.512 288.909 178.677C273.708 200.658 259.926 223.587 247.647 247.323L243.849 254.645L240.371 247.186C233.934 233.365 226.23 220.689 217.032 209.354C207.849 198.02 197.141 187.967 184.679 179.41L186.936 172.011Z" fill="#10A64A"/>
</g>
<defs>
<clipPath id="clip0_131_19">
<rect width="781" height="520" fill="white"/>
</clipPath>
</defs>
</svg>
